<?xml version="1.0" standalone="no"?>
<!DOCTYPE svg PUBLIC "-//W3C//DTD SVG 20010904//EN"
 "http://www.w3.org/TR/2001/REC-SVG-20010904/DTD/svg10.dtd">
<svg version="1.0" xmlns="http://www.w3.org/2000/svg"
 width="150.000000pt" height="150.000000pt" viewBox="0 0 150.000000 150.000000"
 preserveAspectRatio="xMidYMid meet">

<g transform="translate(0.000000,150.000000) scale(0.100000,-0.100000)"
fill="#000000" stroke="none">
<path d="M30 916 c0 -11 -5 -16 -13 -13 -18 7 -16 -41 2 -52 8 -5 11 -16 6
-30 -5 -17 -2 -21 17 -21 17 0 19 3 9 9 -8 5 -12 18 -8 30 3 12 2 19 -2 17 -4
-3 -13 -1 -21 4 -12 7 -11 12 7 27 15 14 19 23 12 34 -7 11 -9 11 -9 -5z"/>
<path d="M70 910 c0 -5 5 -10 10 -10 6 0 10 5 10 10 0 6 -4 10 -10 10 -5 0
-10 -4 -10 -10z"/>
<path d="M1146 884 c-10 -27 -6 -108 7 -134 10 -20 20 -25 52 -25 32 0 42 5
55 28 13 24 13 30 -1 55 -13 22 -22 27 -52 26 -36 -1 -37 0 -37 32 0 35 -13
45 -24 18z m94 -110 c0 -28 -25 -42 -49 -27 -22 14 -25 38 -6 57 22 22 55 4
55 -30z"/>
<path d="M903 863 c-4 -10 -14 -23 -22 -30 -14 -11 -14 -12 1 -13 13 0 18 -11
20 -50 4 -67 22 -69 26 -2 2 37 7 52 18 52 7 0 14 5 14 10 0 6 -7 10 -15 10
-8 0 -15 6 -15 14 0 23 -19 29 -27 9z"/>
<path d="M664 826 c-5 -20 -4 -43 6 -103 0 -2 5 -3 10 -3 6 0 10 18 10 40 0
34 4 42 25 50 14 5 25 15 25 21 0 7 -10 9 -25 7 -14 -3 -25 -1 -25 3 0 20 -20
7 -26 -15z"/>
<path d="M169 830 c-20 -12 -32 -54 -24 -80 9 -28 57 -43 88 -28 29 15 19 27
-18 21 -30 -5 -35 -3 -41 21 -8 32 11 57 40 54 11 -2 23 2 26 7 7 13 -51 17
-71 5z"/>
<path d="M292 833 c-21 -8 -33 -50 -22 -78 12 -31 47 -46 80 -33 30 11 40 25
40 59 0 45 -50 71 -98 52z m56 -25 c32 -32 0 -84 -37 -61 -22 14 -25 38 -6 57
20 19 27 20 43 4z"/>
<path d="M410 778 c0 -65 16 -78 25 -20 10 57 14 64 32 60 13 -2 19 -16 23
-51 3 -26 10 -49 15 -50 14 -3 18 64 6 96 -10 24 -15 27 -56 25 l-45 -1 0 -59z"/>
<path d="M556 824 c-27 -27 -18 -86 16 -102 21 -10 33 -10 48 -2 30 16 24 26
-14 22 -28 -3 -34 0 -39 19 -10 37 10 62 45 55 21 -4 28 -2 26 7 -7 19 -63 20
-82 1z"/>
<path d="M767 822 c-24 -26 -22 -79 2 -92 25 -13 91 -13 91 0 0 6 -15 10 -34
10 -19 0 -38 5 -41 10 -3 6 5 10 19 10 13 0 31 3 40 6 19 7 21 45 4 62 -18 18
-63 14 -81 -6z m68 -22 c0 -18 -33 -26 -48 -11 -9 9 -8 14 3 21 21 14 45 8 45
-10z"/>
<path d="M987 822 c-20 -22 -22 -61 -4 -86 15 -20 72 -25 89 -8 9 9 3 12 -24
12 -20 0 -40 5 -43 10 -3 6 5 10 19 10 13 0 31 3 40 6 19 7 21 45 4 62 -18 18
-63 14 -81 -6z m68 -22 c0 -18 -33 -26 -47 -12 -6 6 -7 15 -3 22 10 16 50 8
50 -10z"/>
<path d="M1280 825 c0 -9 7 -30 16 -47 15 -29 15 -43 -1 -95 -5 -14 -3 -23 3
-23 11 0 79 120 88 158 10 37 -11 25 -33 -20 l-21 -43 -16 37 c-17 41 -36 58
-36 33z"/>
<path d="M36 773 c-6 -14 -5 -15 5 -6 7 7 10 15 7 18 -3 3 -9 -2 -12 -12z"/>
<path d="M10 740 c0 -5 5 -10 10 -10 6 0 10 5 10 10 0 6 -4 10 -10 10 -5 0
-10 -4 -10 -10z"/>
<path d="M40 741 c0 -6 4 -13 10 -16 6 -3 7 1 4 9 -7 18 -14 21 -14 7z"/>
<path d="M1106 741 c-4 -7 -5 -15 -2 -18 9 -9 19 4 14 18 -4 11 -6 11 -12 0z"/>
<path d="M140 530 c12 -22 35 -26 46 -9 3 6 1 16 -5 22 -9 9 -11 8 -6 -5 5
-13 2 -18 -9 -18 -9 0 -16 7 -16 15 0 8 -5 15 -10 15 -7 0 -7 -6 0 -20z"/>
<path d="M200 375 c0 -11 4 -26 9 -33 7 -11 9 -11 14 1 3 8 -1 23 -8 34 -14
17 -14 17 -15 -2z"/>
<path d="M0 328 c0 -25 3 -29 10 -18 6 9 10 10 10 3 0 -6 -4 -14 -9 -18 -12
-7 -12 -85 -1 -85 5 0 11 14 15 30 4 17 11 30 16 30 14 0 11 27 -6 60 -20 39
-35 38 -35 -2z"/>
<path d="M416 347 c3 -10 9 -15 12 -12 3 3 0 11 -7 18 -10 9 -11 8 -5 -6z"/>
<path d="M160 341 c0 -6 4 -13 10 -16 6 -3 7 1 4 9 -7 18 -14 21 -14 7z"/>
<path d="M412 290 c14 -22 24 -19 15 5 -4 8 -11 15 -17 15 -6 0 -6 -7 2 -20z"/>
<path d="M416 223 c10 -40 14 -41 14 -5 0 18 -5 32 -10 32 -6 0 -8 -11 -4 -27z"/>
<path d="M391 214 c0 -11 3 -14 6 -6 3 7 2 16 -1 19 -3 4 -6 -2 -5 -13z"/>
<path d="M407 144 c7 -3 9 -12 6 -20 -3 -9 1 -14 11 -14 14 0 15 4 6 20 -6 11
-16 20 -23 19 -9 0 -9 -2 0 -5z"/>
<path d="M150 106 c0 -2 8 -10 18 -17 15 -13 16 -12 3 4 -13 16 -21 21 -21 13z"/>
</g>
</svg>
